Coordinates
version=1
nRows=5
nColumns=42
inDegrees=yes

Units are S.I. units (second, meters, Newtons, ...)
If the header above contains a line with 'inDegrees', this indicates whether rotational values are in degrees (yes) or radians (no).

endheader
time	pelvis_tilt	pelvis_list	pelvis_rotation	pelvis_tx	pelvis_ty	pelvis_tz	hip_flexion_r	hip_adduction_r	hip_rotation_r	knee_angle_r	knee_adduction_r	knee_angle_r_beta	ankle_angle_r	subtalar_angle_r	mtp_angle_r	hip_flexion_l	hip_adduction_l	hip_rotation_l	knee_angle_l	knee_adduction_l	knee_angle_l_beta	ankle_angle_l	subtalar_angle_l	mtp_angle_l	lumbar_extension	lumbar_bending	lumbar_rotation	arm_flex_r	arm_add_r	arm_rot_r	elbow_flex_r	pro_sup_r	wrist_flex_r	wrist_dev_r	arm_flex_l	arm_add_l	arm_rot_l	elbow_flex_l	pro_sup_l	wrist_flex_l	wrist_dev_l
      1.07000000	     14.63206894	      5.36732786	      0.05447826	     -0.23041940	      0.93714691	     -0.27657468	     14.43121876	     -2.85588964	     -5.27121946	     38.99758615	     -3.53375131	      0.68063628	      8.58491565	     -9.82092516	     -7.74680860	    -15.98392163	     14.34958001	    -24.93360049	     13.11169097	     -8.36869018	      0.22884218	     23.83611957	     28.60828059	     -7.74680860	    -45.85998354	     -7.88152177	     -4.42530928	      3.40980328	     -7.90432680	     11.23889609	     38.92047032	     90.00000001	      0.00000000	      0.00000000	     -5.74442771	    -14.09604226	     14.86556926	     49.01769511	     90.00000001	      0.00000000	      0.00000000
      1.08000000	     14.71270146	      5.44870918	     -0.25510877	     -0.22457284	      0.93642519	     -0.27616963	     14.56201571	     -2.73840101	     -5.85663237	     36.71537687	     -3.76592072	      0.64080421	      9.18846265	     -8.00780450	     -7.74066025	    -16.88402891	     14.58189708	    -24.86106549	     12.37400832	     -8.13891929	      0.21596719	     23.84864816	     28.65245792	     -7.74066025	    -45.86277122	     -8.06860899	     -4.23584376	      3.34158815	     -7.89749371	     11.22867494	     38.93799138	     90.00000001	      0.00000000	      0.00000000	     -5.82177077	    -14.08253432	     14.92998234	     48.87915061	     90.00000001	      0.00000000	      0.00000000
      1.09000000	     14.58523484	      5.64182536	     -0.62090815	     -0.21895271	      0.93504802	     -0.27568731	     15.09020839	     -2.68338985	     -6.37665988	     34.79071977	     -4.08910514	      0.60721261	      9.64892226	     -6.70223556	     -7.73656042	    -17.34002716	     15.05383074	    -24.90678211	     11.90555003	     -8.24968250	      0.20779105	     23.97098073	     28.60462582	     -7.73656042	    -45.66364613	     -8.39574795	     -4.09424188	      3.28315126	     -7.87093425	     11.23257671	     38.97208527	     90.00000001	      0.00000000	      0.00000000	     -5.91381973	    -14.10406506	     14.97338698	     48.82088313	     90.00000001	      0.00000000	      0.00000000
      1.10000000	     14.56520977	      5.77701571	     -0.98853328	     -0.21311021	      0.93387994	     -0.27509575	     15.30253459	     -2.52197808	     -6.96529627	     32.60693444	     -4.47297711	      0.56909836	     10.29184213	     -4.78331844	     -7.73276714	    -18.03762274	     15.42075657	    -24.95416114	     11.24422134	     -8.21369132	      0.19624868	     24.10114149	     28.73384239	     -7.73276714	    -45.55425117	     -8.68121541	     -3.91846160	      3.24387807	     -7.86253629	     11.21675848	     38.96005108	     90.00000001	      0.00000000	      0.00000000	     -5.99620451	    -14.13741241	     15.05038933	     48.65694522	     90.00000001	      0.00000000	      0.00000000
      1.11000000	     14.76906572	      5.96877816	     -1.11858778	     -0.20663381	      0.93294110	     -0.27506082	     15.44156608	     -2.81847347	     -9.87969498	     30.88999661	     -5.40431152	      0.53913215	     12.05486088	      0.78611695	     -7.71639523	    -19.16554601	     15.69238506	    -24.63242264	     10.54202878	     -7.87135643	      0.18399311	     24.00432121	     28.61548653	     -7.71639523	    -45.63503640	     -8.82651417	     -3.95159829	      3.07248265	     -7.87569735	     11.20437681	     39.12933670	     90.00000001	      0.00000000	      0.00000000	     -6.17949203	    -14.22669220	     15.14916361	     48.67678001	     90.00000001	      0.00000000	      0.00000000
